<svg width="40" height="40" viewBox="0 0 40 40" fill="none" xmlns="http://www.w3.org/2000/svg">
<g clip-path="url(#clip0_1129_6642)">
<g opacity="0.3">
<mask id="mask0_1129_6642" style="mask-type:alpha" maskUnits="userSpaceOnUse" x="-9" y="-9" width="58" height="58">
<circle cx="19.8751" cy="19.8747" r="17.7592" transform="rotate(22.4119 19.8751 19.8747)" fill="url(#paint0_radial_1129_6642)" stroke="white" stroke-width="22"/>
</mask>
<g mask="url(#mask0_1129_6642)">
<rect opacity="0.6" x="16.6553" y="6.5835" width="19.5386" height="19.5386" rx="1" transform="rotate(30 16.6553 6.5835)" fill="url(#paint1_radial_1129_6642)"/>
<rect opacity="0.6" x="20.2312" y="6.11279" width="19.5386" height="19.5386" rx="1" transform="rotate(45 20.2312 6.11279)" fill="url(#paint2_radial_1129_6642)"/>
<rect opacity="0.6" x="23.8071" y="6.5835" width="19.5386" height="19.5386" rx="1" transform="rotate(60 23.8071 6.5835)" fill="url(#paint3_radial_1129_6642)"/>
<rect opacity="0.6" x="30.0005" y="10.1592" width="19.5386" height="19.5386" rx="1" transform="rotate(90 30.0005 10.1592)" fill="url(#paint4_radial_1129_6642)"/>
</g>
</g>
<path d="M6.87549 19.9998C6.87549 21.0355 6.03549 21.8755 4.99977 21.8755C3.96406 21.8755 3.12549 21.0355 3.12549 19.9998C3.12549 18.9641 3.96406 18.1255 4.99977 18.1255C6.03549 18.1255 6.87549 18.9641 6.87549 19.9998Z" fill="white"/>
<path d="M11.8755 9.99977C11.8755 11.0355 11.0355 11.8755 9.99977 11.8755C8.96406 11.8755 8.12549 11.0355 8.12549 9.99977C8.12549 8.96406 8.96406 8.12549 9.99977 8.12549C11.0355 8.12549 11.8755 8.96406 11.8755 9.99977Z" fill="white"/>
<path d="M11.8755 29.9998C11.8755 31.0355 11.0355 31.8755 9.99977 31.8755C8.96406 31.8755 8.12549 31.0355 8.12549 29.9998C8.12549 28.9641 8.96406 28.1255 9.99977 28.1255C11.0355 28.1255 11.8755 28.9641 11.8755 29.9998Z" fill="white"/>
<path d="M16.8755 14.9998C16.8755 16.0355 16.0355 16.8755 14.9998 16.8755C13.9641 16.8755 13.1255 16.0355 13.1255 14.9998C13.1255 13.9641 13.9641 13.1255 14.9998 13.1255C16.0355 13.1255 16.8755 13.9641 16.8755 14.9998Z" fill="white"/>
<path d="M16.8755 24.9998C16.8755 26.0355 16.0355 26.8755 14.9998 26.8755C13.9641 26.8755 13.1255 26.0355 13.1255 24.9998C13.1255 23.9641 13.9641 23.1255 14.9998 23.1255C16.0355 23.1255 16.8755 23.9641 16.8755 24.9998Z" fill="white"/>
<path d="M21.8755 4.99977C21.8755 6.03549 21.0355 6.87549 19.9998 6.87549C18.9641 6.87549 18.1255 6.03549 18.1255 4.99977C18.1255 3.96406 18.9641 3.12549 19.9998 3.12549C21.0355 3.12549 21.8755 3.96406 21.8755 4.99977Z" fill="white"/>
<path d="M21.8755 34.9998C21.8755 36.0355 21.0355 36.8755 19.9998 36.8755C18.9641 36.8755 18.1255 36.0355 18.1255 34.9998C18.1255 33.9641 18.9641 33.1255 19.9998 33.1255C21.0355 33.1255 21.8755 33.9641 21.8755 34.9998Z" fill="white"/>
<path d="M26.8755 14.9998C26.8755 16.0355 26.0355 16.8755 24.9998 16.8755C23.9641 16.8755 23.1255 16.0355 23.1255 14.9998C23.1255 13.9641 23.9641 13.1255 24.9998 13.1255C26.0355 13.1255 26.8755 13.9641 26.8755 14.9998Z" fill="white"/>
<path d="M26.8755 24.9998C26.8755 26.0355 26.0355 26.8755 24.9998 26.8755C23.9641 26.8755 23.1255 26.0355 23.1255 24.9998C23.1255 23.9641 23.9641 23.1255 24.9998 23.1255C26.0355 23.1255 26.8755 23.9641 26.8755 24.9998Z" fill="white"/>
<path d="M36.8755 19.9998C36.8755 21.0355 36.0355 21.8755 34.9998 21.8755C33.9641 21.8755 33.1255 21.0355 33.1255 19.9998C33.1255 18.9641 33.9641 18.1255 34.9998 18.1255C36.0355 18.1255 36.8755 18.9641 36.8755 19.9998Z" fill="white"/>
<path d="M31.8755 9.99977C31.8755 11.0355 31.0355 11.8755 29.9998 11.8755C28.9641 11.8755 28.1255 11.0355 28.1255 9.99977C28.1255 8.96406 28.9641 8.12549 29.9998 8.12549C31.0355 8.12549 31.8755 8.96406 31.8755 9.99977Z" fill="white"/>
<path d="M31.8755 29.9998C31.8755 31.0355 31.0355 31.8755 29.9998 31.8755C28.9641 31.8755 28.1255 31.0355 28.1255 29.9998C28.1255 28.9641 28.9641 28.1255 29.9998 28.1255C31.0355 28.1255 31.8755 28.9641 31.8755 29.9998Z" fill="white"/>
</g>
<defs>
<radialGradient id="paint0_radial_1129_6642" cx="0" cy="0" r="1" gradientUnits="userSpaceOnUse" gradientTransform="translate(19.8751 19.8747) rotate(90) scale(17.7592)">
<stop stop-color="white" stop-opacity="0"/>
<stop offset="1" stop-color="white"/>
</radialGradient>
<radialGradient id="paint1_radial_1129_6642" cx="0" cy="0" r="1" gradientUnits="userSpaceOnUse" gradientTransform="translate(26.4246 16.3528) rotate(90) scale(9.76929)">
<stop offset="0.509615" stop-color="white" stop-opacity="0"/>
<stop offset="1" stop-color="white"/>
</radialGradient>
<radialGradient id="paint2_radial_1129_6642" cx="0" cy="0" r="1" gradientUnits="userSpaceOnUse" gradientTransform="translate(30.0005 15.8821) rotate(90) scale(9.76929)">
<stop offset="0.509615" stop-color="white" stop-opacity="0"/>
<stop offset="1" stop-color="white"/>
</radialGradient>
<radialGradient id="paint3_radial_1129_6642" cx="0" cy="0" r="1" gradientUnits="userSpaceOnUse" gradientTransform="translate(33.5764 16.3528) rotate(90) scale(9.76929)">
<stop offset="0.509615" stop-color="white" stop-opacity="0"/>
<stop offset="1" stop-color="white"/>
</radialGradient>
<radialGradient id="paint4_radial_1129_6642" cx="0" cy="0" r="1" gradientUnits="userSpaceOnUse" gradientTransform="translate(39.7698 19.9285) rotate(90) scale(9.76929)">
<stop offset="0.509615" stop-color="white" stop-opacity="0"/>
<stop offset="1" stop-color="white"/>
</radialGradient>
<clipPath id="clip0_1129_6642">
<rect width="40" height="40" fill="white"/>
</clipPath>
</defs>
</svg>
